<mxfile host="app.diagrams.net" modified="2024-08-24T18:58:37.804Z" agent="Mozilla/5.0 (Windows NT 10.0; Win64; x64) AppleWebKit/537.36 (KHTML, like Gecko) Chrome/127.0.0.0 Safari/537.36 Edg/127.0.0.0" etag="ZQhzbBbxLsDH2Lt4kSO5" version="22.1.21" type="device">
  <diagram name="Page-1" id="Xo_3tr6gcs6qy7t2CSbi">
    <mxGraphModel dx="1013" dy="592" grid="1" gridSize="10" guides="1" tooltips="1" connect="1" arrows="1" fold="1" page="1" pageScale="1" pageWidth="850" pageHeight="1100" math="0" shadow="0">
      <root>
        <mxCell id="0" />
        <mxCell id="1" parent="0" />
        <mxCell id="tybRZtptG0WyRt-e2Su_-18" value="&lt;font style=&quot;font-size: 20px;&quot;&gt;Home network&lt;/font&gt;" style="rounded=1;whiteSpace=wrap;html=1;labelPosition=center;verticalLabelPosition=top;align=center;verticalAlign=bottom;labelBackgroundColor=none;" vertex="1" parent="1">
          <mxGeometry x="190" y="70" width="650" height="300" as="geometry" />
        </mxCell>
        <mxCell id="tybRZtptG0WyRt-e2Su_-12" value="Raspberry 1" style="rounded=1;whiteSpace=wrap;html=1;labelPosition=center;verticalLabelPosition=top;align=center;verticalAlign=bottom;" vertex="1" parent="1">
          <mxGeometry x="510" y="140" width="240" height="160" as="geometry" />
        </mxCell>
        <mxCell id="tybRZtptG0WyRt-e2Su_-20" value="" style="edgeStyle=orthogonalEdgeStyle;rounded=0;orthogonalLoop=1;jettySize=auto;html=1;" edge="1" parent="1" source="tybRZtptG0WyRt-e2Su_-3" target="tybRZtptG0WyRt-e2Su_-9">
          <mxGeometry relative="1" as="geometry" />
        </mxCell>
        <mxCell id="tybRZtptG0WyRt-e2Su_-27" value="Port 22" style="edgeLabel;html=1;align=center;verticalAlign=middle;resizable=0;points=[];" vertex="1" connectable="0" parent="tybRZtptG0WyRt-e2Su_-20">
          <mxGeometry x="-0.2053" y="-2" relative="1" as="geometry">
            <mxPoint as="offset" />
          </mxGeometry>
        </mxCell>
        <mxCell id="tybRZtptG0WyRt-e2Su_-3" value="" style="image;aspect=fixed;perimeter=ellipsePerimeter;html=1;align=center;shadow=0;dashed=0;spacingTop=3;image=img/lib/active_directory/internet_globe.svg;" vertex="1" parent="1">
          <mxGeometry y="148.87" width="94.25" height="94.25" as="geometry" />
        </mxCell>
        <mxCell id="tybRZtptG0WyRt-e2Su_-4" value="" style="image;aspect=fixed;perimeter=ellipsePerimeter;html=1;align=center;shadow=0;dashed=0;spacingTop=3;image=img/lib/active_directory/home.svg;" vertex="1" parent="1">
          <mxGeometry x="228" y="83.5" width="80.93" height="78.5" as="geometry" />
        </mxCell>
        <mxCell id="tybRZtptG0WyRt-e2Su_-6" value="" style="image;aspect=fixed;perimeter=ellipsePerimeter;html=1;align=center;shadow=0;dashed=0;spacingTop=3;image=img/lib/active_directory/laptop_client.svg;" vertex="1" parent="1">
          <mxGeometry x="287" y="260" width="72" height="80" as="geometry" />
        </mxCell>
        <mxCell id="tybRZtptG0WyRt-e2Su_-17" value="Honeypot" style="rounded=1;whiteSpace=wrap;html=1;" vertex="1" parent="1">
          <mxGeometry x="510" y="140" width="120" height="90" as="geometry" />
        </mxCell>
        <mxCell id="tybRZtptG0WyRt-e2Su_-7" value="" style="image;aspect=fixed;perimeter=ellipsePerimeter;html=1;align=center;shadow=0;dashed=0;spacingTop=3;image=img/lib/active_directory/cell_phone.svg;" vertex="1" parent="1">
          <mxGeometry x="240" y="275" width="21" height="50" as="geometry" />
        </mxCell>
        <mxCell id="tybRZtptG0WyRt-e2Su_-24" value="" style="edgeStyle=orthogonalEdgeStyle;rounded=0;orthogonalLoop=1;jettySize=auto;html=1;curved=1;" edge="1" parent="1" source="tybRZtptG0WyRt-e2Su_-9" target="tybRZtptG0WyRt-e2Su_-23">
          <mxGeometry relative="1" as="geometry" />
        </mxCell>
        <mxCell id="tybRZtptG0WyRt-e2Su_-25" value="Port 2222 -" style="edgeLabel;html=1;align=center;verticalAlign=middle;resizable=0;points=[];" vertex="1" connectable="0" parent="tybRZtptG0WyRt-e2Su_-24">
          <mxGeometry x="0.0882" relative="1" as="geometry">
            <mxPoint as="offset" />
          </mxGeometry>
        </mxCell>
        <mxCell id="tybRZtptG0WyRt-e2Su_-9" value="Edge router" style="image;aspect=fixed;html=1;points=[];align=center;fontSize=12;image=img/lib/azure2/networking/NAT.svg;" vertex="1" parent="1">
          <mxGeometry x="160" y="162" width="68" height="68" as="geometry" />
        </mxCell>
        <mxCell id="tybRZtptG0WyRt-e2Su_-1" value="" style="shape=image;html=1;verticalAlign=top;verticalLabelPosition=bottom;labelBackgroundColor=#ffffff;imageAspect=0;aspect=fixed;image=https://cdn1.iconfinder.com/data/icons/fruit-136/64/Fruit_iconfree_Filled_Outline_raspberry-healthy-organic-food-fruit_icon-128.png" vertex="1" parent="1">
          <mxGeometry x="650" y="146" width="78" height="78" as="geometry" />
        </mxCell>
        <mxCell id="tybRZtptG0WyRt-e2Su_-23" value="" style="shape=waypoint;sketch=0;size=6;pointerEvents=1;points=[];fillColor=default;resizable=0;rotatable=0;perimeter=centerPerimeter;snapToPoint=1;verticalAlign=top;labelBackgroundColor=default;" vertex="1" parent="1">
          <mxGeometry x="500" y="175" width="20" height="20" as="geometry" />
        </mxCell>
        <mxCell id="tybRZtptG0WyRt-e2Su_-28" value="" style="image;aspect=fixed;perimeter=ellipsePerimeter;html=1;align=center;shadow=0;dashed=0;spacingTop=3;image=img/lib/active_directory/laptop_client.svg;" vertex="1" parent="1">
          <mxGeometry x="378" y="260" width="72" height="80" as="geometry" />
        </mxCell>
      </root>
    </mxGraphModel>
  </diagram>
</mxfile>
